<?xml version="1.0" standalone="no"?>
<!DOCTYPE svg PUBLIC "-//W3C//DTD SVG 20010904//EN"
 "http://www.w3.org/TR/2001/REC-SVG-20010904/DTD/svg10.dtd">
<svg version="1.0" xmlns="http://www.w3.org/2000/svg"
 width="500.000000pt" height="500.000000pt" viewBox="0 0 500.000000 500.000000"
 preserveAspectRatio="xMidYMid meet">

<g transform="translate(0.000000,500.000000) scale(0.100000,-0.100000)"
fill="#000000" stroke="none">
<path d="M2107 3133 c1 -74 -4 -160 -12 -203 -26 -138 -97 -301 -195 -449 -33
-49 -60 -94 -60 -101 0 -6 -5 -8 -12 -4 -6 4 -8 3 -5 -3 4 -6 -4 -27 -18 -47
-14 -20 -32 -51 -40 -69 -15 -32 -15 -32 2 -7 10 14 94 102 186 195 213 215
289 325 323 472 39 167 -23 321 -138 339 l-33 6 2 -129z"/>
<path d="M2265 2549 c-44 -28 -138 -80 -210 -116 -161 -81 -237 -132 -265
-177 -48 -79 -34 -178 32 -227 115 -83 308 -54 543 80 l80 46 -81 11 c-92 13
-131 30 -168 74 -57 68 -25 166 95 295 34 36 60 65 58 64 -2 0 -40 -23 -84
-50z"/>
<path d="M2850 2074 c-113 -30 -262 -112 -435 -239 -73 -54 -247 -145 -278
-145 -9 0 -17 -4 -17 -10 0 -13 825 -3 905 11 119 21 198 82 210 162 10 66 -9
118 -59 165 -74 68 -199 90 -326 56z"/>
</g>
</svg>
